<svg xmlns="http://www.w3.org/2000/svg" xmlns:xlink="http://www.w3.org/1999/xlink" width="500" zoomAndPan="magnify" viewBox="0 0 375 374.999991" height="500" preserveAspectRatio="xMidYMid meet" version="1.0"><defs><g/><clipPath id="bb4e60e599"><path d="M 29 21 L 365 21 L 365 356 L 29 356 Z M 29 21 " clip-rule="nonzero"/></clipPath><clipPath id="7dbc125acd"><path d="M 202.175781 -49.367188 L 385.207031 141.921875 L 141.898438 374.730469 L -41.136719 183.441406 Z M 202.175781 -49.367188 " clip-rule="nonzero"/></clipPath><clipPath id="4d4d07b5a5"><path d="M 202.175781 -49.367188 L 434.984375 193.945312 L 191.675781 426.753906 L -41.136719 183.441406 Z M 202.175781 -49.367188 " clip-rule="nonzero"/></clipPath><clipPath id="522b01401b"><path d="M 283.027344 230.699219 L 296.214844 230.699219 L 296.214844 243.890625 L 283.027344 243.890625 Z M 283.027344 230.699219 " clip-rule="nonzero"/></clipPath><clipPath id="5d294a1ee7"><path d="M 289.621094 230.699219 C 285.980469 230.699219 283.027344 233.652344 283.027344 237.296875 C 283.027344 240.9375 285.980469 243.890625 289.621094 243.890625 C 293.261719 243.890625 296.214844 240.9375 296.214844 237.296875 C 296.214844 233.652344 293.261719 230.699219 289.621094 230.699219 " clip-rule="nonzero"/></clipPath></defs><g clip-path="url(#bb4e60e599)"><g clip-path="url(#7dbc125acd)"><g clip-path="url(#4d4d07b5a5)"><path fill="#000000" d="M 273.691406 333.859375 C 260.238281 340.824219 245.769531 345.648438 231 348.582031 C 218.914062 350.902344 206.648438 352.132812 194.363281 352.074219 C 192.730469 352.113281 191.097656 351.96875 189.464844 351.910156 C 187.832031 351.820312 186.195312 351.785156 184.566406 351.660156 L 179.683594 351.210938 L 177.242188 350.988281 L 174.816406 350.65625 L 169.957031 350.003906 C 168.339844 349.753906 166.738281 349.433594 165.128906 349.15625 C 161.894531 348.652344 158.71875 347.867188 155.519531 347.183594 C 155.058594 347.082031 154.578125 346.976562 154.074219 346.867188 C 153.578125 346.730469 153.0625 346.589844 152.523438 346.441406 C 151.453125 346.148438 150.296875 345.828125 149.070312 345.492188 C 146.59375 344.867188 143.902344 343.902344 140.929688 342.925781 C 140.191406 342.667969 139.429688 342.4375 138.667969 342.148438 C 137.90625 341.851562 137.136719 341.550781 136.347656 341.242188 C 134.773438 340.625 133.140625 339.980469 131.460938 339.320312 C 128.183594 337.800781 124.617188 336.355469 121.085938 334.4375 C 106.6875 327.3125 91.207031 316.03125 78.070312 302.417969 C 65.050781 288.695312 54.464844 272.730469 47.976562 258.03125 C 46.21875 254.417969 44.933594 250.792969 43.558594 247.453125 C 42.972656 245.742188 42.402344 244.085938 41.855469 242.488281 C 41.582031 241.6875 41.3125 240.902344 41.050781 240.132812 C 40.796875 239.359375 40.597656 238.582031 40.375 237.835938 C 39.527344 234.824219 38.683594 232.089844 38.171875 229.59375 C 37.886719 228.347656 37.621094 227.179688 37.371094 226.097656 C 37.25 225.554688 37.132812 225.03125 37.019531 224.527344 C 36.929688 224.023438 36.84375 223.535156 36.765625 223.074219 C 34.527344 210.992188 33.378906 198.726562 33.519531 186.445312 C 33.800781 173.363281 35.691406 160.355469 38.691406 147.605469 C 42.277344 132.980469 47.734375 118.734375 55.285156 105.601562 C 62.679688 92.375 72.242188 80.378906 83.136719 69.773438 C 94.214844 59.355469 106.621094 50.332031 120.160156 43.527344 C 133.613281 36.5625 148.082031 31.738281 162.851562 28.804688 C 174.933594 26.484375 187.203125 25.253906 199.484375 25.3125 C 201.121094 25.273438 202.753906 25.417969 204.386719 25.476562 C 206.019531 25.566406 207.652344 25.601562 209.28125 25.726562 L 214.164062 26.175781 L 216.605469 26.398438 L 219.035156 26.730469 L 223.894531 27.382812 C 225.507812 27.632812 227.113281 27.953125 228.722656 28.230469 C 231.957031 28.734375 235.128906 29.519531 238.332031 30.203125 C 238.789062 30.304688 239.269531 30.410156 239.773438 30.519531 C 240.269531 30.65625 240.785156 30.796875 241.324219 30.945312 C 242.398438 31.238281 243.550781 31.554688 244.78125 31.894531 C 247.257812 32.519531 249.949219 33.484375 252.917969 34.460938 C 253.65625 34.71875 254.421875 34.949219 255.183594 35.238281 C 255.941406 35.535156 256.714844 35.835938 257.503906 36.144531 C 259.078125 36.761719 260.707031 37.40625 262.390625 38.066406 C 265.664062 39.585938 269.230469 41.03125 272.761719 42.945312 C 287.164062 50.074219 302.640625 61.355469 315.777344 74.96875 C 328.800781 88.691406 339.386719 104.65625 345.871094 119.355469 C 347.632812 122.964844 348.914062 126.589844 350.292969 129.933594 C 350.878906 131.640625 351.445312 133.300781 351.996094 134.898438 C 352.269531 135.699219 352.539062 136.484375 352.800781 137.253906 C 353.054688 138.027344 353.25 138.804688 353.472656 139.550781 C 354.320312 142.5625 355.167969 145.296875 355.679688 147.792969 C 355.964844 149.039062 356.230469 150.203125 356.476562 151.289062 C 356.601562 151.832031 356.71875 152.355469 356.832031 152.855469 C 356.917969 153.363281 357.003906 153.851562 357.085938 154.3125 C 359.324219 166.394531 360.472656 178.660156 360.328125 190.941406 C 360.046875 204.023438 358.160156 217.03125 355.15625 229.78125 C 351.574219 244.40625 346.117188 258.652344 338.566406 271.785156 C 331.171875 285.011719 321.609375 297.007812 310.714844 307.613281 C 299.636719 318.03125 287.230469 327.054688 273.691406 333.859375 Z M 313.410156 310.269531 L 313.417969 310.257812 C 324.539062 299.425781 334.320312 287.175781 341.894531 273.667969 C 349.621094 260.253906 355.207031 245.691406 358.824219 230.734375 L 360.398438 223.699219 C 360.398438 223.699219 360.765625 221.75 361.320312 218.828125 C 361.953125 215.914062 362.390625 211.964844 362.96875 208.042969 C 363.300781 204.089844 363.777344 200.152344 363.828125 197.175781 C 363.957031 194.203125 364.042969 192.222656 364.042969 192.222656 C 364.042969 192.222656 364.058594 191.730469 364.058594 190.863281 C 364.0625 189.996094 364.070312 188.757812 364.078125 187.269531 C 364.171875 184.292969 363.929688 180.335938 363.773438 176.375 C 363.632812 174.398438 363.425781 172.429688 363.265625 170.574219 C 363.179688 169.648438 363.097656 168.757812 363.023438 167.90625 C 362.90625 167.0625 362.792969 166.265625 362.691406 165.53125 C 362.28125 162.585938 362.007812 160.621094 362.007812 160.621094 C 362.007812 160.621094 361.972656 160.171875 361.84375 159.507812 C 361.726562 158.84375 361.570312 157.957031 361.417969 157.074219 C 361.105469 155.300781 360.796875 153.527344 360.796875 153.527344 C 360.714844 153.050781 360.628906 152.554688 360.539062 152.035156 C 360.425781 151.519531 360.308594 150.984375 360.183594 150.429688 C 359.933594 149.316406 359.660156 148.125 359.375 146.851562 C 358.851562 144.292969 357.996094 141.492188 357.128906 138.414062 C 356.902344 137.644531 356.699219 136.851562 356.441406 136.058594 C 356.175781 135.269531 355.902344 134.464844 355.625 133.648438 C 355.0625 132.007812 354.484375 130.3125 353.882812 128.5625 C 352.480469 125.140625 351.164062 121.429688 349.371094 117.730469 C 342.738281 102.679688 331.90625 86.328125 318.582031 72.289062 C 305.144531 58.355469 289.285156 46.8125 274.539062 39.523438 C 270.921875 37.570312 267.273438 36.089844 263.917969 34.539062 C 262.195312 33.863281 260.523438 33.207031 258.914062 32.578125 C 258.105469 32.261719 257.3125 31.953125 256.539062 31.648438 C 255.757812 31.355469 254.976562 31.117188 254.21875 30.859375 C 251.179688 29.859375 248.421875 28.878906 245.886719 28.246094 C 244.628906 27.902344 243.445312 27.582031 242.347656 27.28125 C 241.800781 27.132812 241.269531 26.988281 240.761719 26.851562 C 240.246094 26.742188 239.753906 26.632812 239.28125 26.53125 C 239.28125 26.53125 237.523438 26.144531 235.765625 25.753906 C 234.886719 25.5625 234.007812 25.367188 233.351562 25.222656 C 232.695312 25.066406 232.246094 25.007812 232.246094 25.007812 C 232.246094 25.007812 230.296875 24.648438 227.375 24.109375 C 226.640625 23.976562 225.851562 23.828125 225.011719 23.675781 C 224.167969 23.558594 223.28125 23.4375 222.359375 23.3125 C 220.515625 23.070312 218.554688 22.777344 216.585938 22.550781 C 212.636719 22.222656 208.691406 21.804688 205.714844 21.765625 C 204.230469 21.707031 202.992188 21.660156 202.125 21.625 C 201.261719 21.589844 200.765625 21.582031 200.765625 21.582031 C 200.765625 21.582031 198.785156 21.582031 195.808594 21.578125 C 192.835938 21.496094 188.878906 21.800781 184.914062 21.960938 C 180.96875 22.363281 177.003906 22.625 174.066406 23.128906 C 171.121094 23.554688 169.15625 23.835938 169.15625 23.835938 L 162.0625 25.097656 C 146.960938 28.054688 132.164062 32.988281 118.421875 40.117188 C 104.59375 47.089844 91.925781 56.320312 80.613281 66.957031 L 80.601562 66.960938 L 80.519531 67.039062 L 80.441406 67.117188 L 80.433594 67.128906 C 69.308594 77.960938 59.53125 90.207031 51.957031 103.71875 C 44.226562 117.132812 38.644531 131.695312 35.027344 146.652344 L 33.453125 153.683594 C 33.453125 153.683594 33.082031 155.636719 32.53125 158.558594 C 31.898438 161.472656 31.460938 165.417969 30.882812 169.34375 C 30.550781 173.296875 30.070312 177.234375 30.023438 180.210938 C 29.894531 183.183594 29.808594 185.160156 29.808594 185.160156 C 29.808594 185.160156 29.792969 185.65625 29.789062 186.523438 C 29.785156 187.390625 29.777344 188.628906 29.773438 190.117188 C 29.679688 193.09375 29.921875 197.050781 30.078125 201.011719 C 30.21875 202.988281 30.425781 204.957031 30.582031 206.8125 C 30.667969 207.738281 30.75 208.628906 30.828125 209.480469 C 30.945312 210.324219 31.058594 211.121094 31.160156 211.855469 C 31.570312 214.800781 31.84375 216.765625 31.84375 216.765625 C 31.84375 216.765625 31.878906 217.214844 32.007812 217.875 C 32.125 218.542969 32.277344 219.429688 32.433594 220.3125 C 32.742188 222.085938 33.054688 223.859375 33.054688 223.859375 C 33.136719 224.335938 33.21875 224.832031 33.308594 225.351562 C 33.421875 225.867188 33.542969 226.402344 33.667969 226.957031 C 33.917969 228.070312 34.1875 229.261719 34.476562 230.535156 C 34.996094 233.09375 35.855469 235.894531 36.722656 238.972656 C 36.945312 239.742188 37.148438 240.535156 37.40625 241.328125 C 37.675781 242.117188 37.949219 242.921875 38.226562 243.738281 C 38.785156 245.375 39.367188 247.074219 39.964844 248.824219 C 41.367188 252.246094 42.683594 255.957031 44.480469 259.65625 C 51.109375 274.707031 61.941406 291.058594 75.269531 305.097656 C 88.707031 319.03125 104.566406 330.574219 119.3125 337.859375 C 122.925781 339.816406 126.578125 341.296875 129.933594 342.847656 C 131.65625 343.523438 133.324219 344.179688 134.9375 344.808594 C 135.742188 345.125 136.535156 345.433594 137.3125 345.734375 C 138.089844 346.027344 138.875 346.265625 139.632812 346.527344 C 142.671875 347.527344 145.429688 348.507812 147.964844 349.140625 C 149.222656 349.484375 150.402344 349.804688 151.503906 350.105469 C 152.050781 350.253906 152.582031 350.398438 153.089844 350.535156 C 153.605469 350.644531 154.097656 350.753906 154.570312 350.855469 C 154.570312 350.855469 156.324219 351.242188 158.082031 351.632812 C 158.960938 351.824219 159.839844 352.019531 160.5 352.164062 C 161.15625 352.320312 161.601562 352.378906 161.601562 352.378906 C 161.601562 352.378906 163.550781 352.738281 166.476562 353.277344 C 167.207031 353.410156 168 353.558594 168.835938 353.710938 C 169.679688 353.828125 170.570312 353.949219 171.492188 354.074219 C 173.335938 354.316406 175.296875 354.609375 177.265625 354.835938 C 181.214844 355.164062 185.15625 355.582031 188.132812 355.621094 C 189.621094 355.679688 190.855469 355.726562 191.722656 355.761719 C 192.589844 355.796875 193.085938 355.804688 193.085938 355.804688 C 193.085938 355.804688 195.066406 355.804688 198.039062 355.808594 C 201.015625 355.890625 204.972656 355.585938 208.933594 355.425781 C 212.882812 355.023438 216.847656 354.761719 219.78125 354.257812 C 222.730469 353.832031 224.691406 353.550781 224.691406 353.550781 L 231.789062 352.289062 C 246.886719 349.332031 261.683594 344.394531 275.425781 337.269531 C 289.257812 330.296875 301.925781 321.0625 313.238281 310.429688 L 313.25 310.425781 L 313.328125 310.347656 L 313.410156 310.269531 " fill-opacity="1" fill-rule="nonzero"/></g></g></g><g fill="#000000" fill-opacity="1"><g transform="translate(204.052398, 347.926472)"><g><path d="M 4.09375 -12.046875 L 5.34375 -0.578125 L 1.859375 -0.203125 L -0.09375 -18.09375 L 2.609375 -18.390625 L 13.21875 -7.671875 L 11.9375 -19.390625 L 15.40625 -19.78125 L 17.359375 -1.90625 L 14.53125 -1.59375 Z M 4.09375 -12.046875 "/></g></g></g><g fill="#000000" fill-opacity="1"><g transform="translate(234.54767, 343.375285)"><g><path d="M 12.921875 -7 L 13.78125 -4.0625 L 1.796875 -0.53125 L -3.296875 -17.796875 L 8.484375 -21.265625 L 9.359375 -18.328125 L 0.9375 -15.84375 L 2.15625 -11.671875 L 9.421875 -13.828125 L 10.21875 -11.125 L 2.953125 -8.96875 L 4.296875 -4.453125 Z M 12.921875 -7 "/></g></g></g><g fill="#000000" fill-opacity="1"><g transform="translate(259.948781, 335.001228)"><g><path d="M 8.609375 -4.171875 C 7.429688 -3.578125 6.242188 -3.269531 5.046875 -3.25 C 3.847656 -3.226562 2.710938 -3.425781 1.640625 -3.84375 C 0.578125 -4.269531 -0.382812 -4.878906 -1.25 -5.671875 C -2.125 -6.460938 -2.816406 -7.367188 -3.328125 -8.390625 C -3.859375 -9.460938 -4.171875 -10.59375 -4.265625 -11.78125 C -4.359375 -12.96875 -4.242188 -14.113281 -3.921875 -15.21875 C -3.597656 -16.320312 -3.0625 -17.335938 -2.3125 -18.265625 C -1.5625 -19.203125 -0.617188 -19.953125 0.515625 -20.515625 C 1.679688 -21.097656 2.859375 -21.390625 4.046875 -21.390625 C 5.242188 -21.398438 6.375 -21.191406 7.4375 -20.765625 C 8.5 -20.347656 9.46875 -19.738281 10.34375 -18.9375 C 11.21875 -18.144531 11.910156 -17.238281 12.421875 -16.21875 C 12.953125 -15.15625 13.265625 -14.035156 13.359375 -12.859375 C 13.460938 -11.679688 13.347656 -10.546875 13.015625 -9.453125 C 12.691406 -8.359375 12.160156 -7.347656 11.421875 -6.421875 C 10.679688 -5.492188 9.742188 -4.742188 8.609375 -4.171875 Z M -0.140625 -9.984375 C 0.203125 -9.296875 0.640625 -8.679688 1.171875 -8.140625 C 1.710938 -7.597656 2.304688 -7.175781 2.953125 -6.875 C 3.609375 -6.570312 4.300781 -6.414062 5.03125 -6.40625 C 5.769531 -6.394531 6.503906 -6.570312 7.234375 -6.9375 C 7.992188 -7.320312 8.585938 -7.8125 9.015625 -8.40625 C 9.441406 -9.007812 9.726562 -9.671875 9.875 -10.390625 C 10.019531 -11.109375 10.03125 -11.835938 9.90625 -12.578125 C 9.789062 -13.328125 9.566406 -14.03125 9.234375 -14.6875 C 8.890625 -15.382812 8.441406 -16 7.890625 -16.53125 C 7.347656 -17.070312 6.75 -17.492188 6.09375 -17.796875 C 5.445312 -18.097656 4.757812 -18.25 4.03125 -18.25 C 3.300781 -18.25 2.570312 -18.066406 1.84375 -17.703125 C 1.09375 -17.328125 0.5 -16.835938 0.0625 -16.234375 C -0.363281 -15.628906 -0.648438 -14.976562 -0.796875 -14.28125 C -0.941406 -13.582031 -0.953125 -12.859375 -0.828125 -12.109375 C -0.703125 -11.359375 -0.472656 -10.648438 -0.140625 -9.984375 Z M -0.140625 -9.984375 "/></g></g></g><g fill="#000000" fill-opacity="1"><g transform="translate(286.528748, 320.231557)"><g/></g></g><g fill="#000000" fill-opacity="1"><g transform="translate(300.417599, 309.954261)"><g><path d="M 0.21875 -18.3125 C 0.0390625 -18.3125 -0.226562 -18.28125 -0.59375 -18.21875 C -0.96875 -18.164062 -1.382812 -18.054688 -1.84375 -17.890625 C -2.300781 -17.722656 -2.765625 -17.507812 -3.234375 -17.25 C -3.703125 -17 -4.140625 -16.691406 -4.546875 -16.328125 C -5.253906 -15.671875 -5.660156 -15.050781 -5.765625 -14.46875 C -5.867188 -13.882812 -5.703125 -13.359375 -5.265625 -12.890625 C -5.015625 -12.617188 -4.742188 -12.453125 -4.453125 -12.390625 C -4.160156 -12.328125 -3.828125 -12.34375 -3.453125 -12.4375 C -3.078125 -12.53125 -2.644531 -12.695312 -2.15625 -12.9375 C -1.675781 -13.175781 -1.128906 -13.460938 -0.515625 -13.796875 C 0.285156 -14.222656 1.039062 -14.582031 1.75 -14.875 C 2.46875 -15.164062 3.144531 -15.332031 3.78125 -15.375 C 4.425781 -15.414062 5.039062 -15.316406 5.625 -15.078125 C 6.207031 -14.847656 6.78125 -14.425781 7.34375 -13.8125 C 8 -13.113281 8.425781 -12.390625 8.625 -11.640625 C 8.820312 -10.890625 8.835938 -10.148438 8.671875 -9.421875 C 8.515625 -8.691406 8.207031 -7.984375 7.75 -7.296875 C 7.289062 -6.609375 6.738281 -5.960938 6.09375 -5.359375 C 5.101562 -4.441406 3.984375 -3.679688 2.734375 -3.078125 C 1.492188 -2.484375 0.238281 -2.101562 -1.03125 -1.9375 L -1.953125 -5.203125 C -1.742188 -5.191406 -1.40625 -5.234375 -0.9375 -5.328125 C -0.476562 -5.429688 0.0234375 -5.570312 0.578125 -5.75 C 1.140625 -5.9375 1.71875 -6.191406 2.3125 -6.515625 C 2.914062 -6.835938 3.476562 -7.238281 4 -7.71875 C 5.40625 -9.019531 5.6875 -10.125 4.84375 -11.03125 C 4.582031 -11.3125 4.28125 -11.472656 3.9375 -11.515625 C 3.59375 -11.566406 3.203125 -11.53125 2.765625 -11.40625 C 2.328125 -11.289062 1.84375 -11.09375 1.3125 -10.8125 C 0.78125 -10.539062 0.179688 -10.242188 -0.484375 -9.921875 C -1.285156 -9.515625 -2.007812 -9.195312 -2.65625 -8.96875 C -3.3125 -8.738281 -3.921875 -8.617188 -4.484375 -8.609375 C -5.054688 -8.597656 -5.585938 -8.703125 -6.078125 -8.921875 C -6.578125 -9.148438 -7.0625 -9.519531 -7.53125 -10.03125 C -8.144531 -10.695312 -8.566406 -11.40625 -8.796875 -12.15625 C -9.035156 -12.914062 -9.097656 -13.671875 -8.984375 -14.421875 C -8.867188 -15.171875 -8.601562 -15.90625 -8.1875 -16.625 C -7.78125 -17.34375 -7.238281 -18.015625 -6.5625 -18.640625 C -5.632812 -19.503906 -4.644531 -20.148438 -3.59375 -20.578125 C -2.539062 -21.015625 -1.539062 -21.304688 -0.59375 -21.453125 Z M 0.21875 -18.3125 "/></g></g></g><g fill="#000000" fill-opacity="1"><g transform="translate(319.531678, 290.943802)"><g><path d="M -2.46875 -21.265625 L -5.984375 -16.703125 L 5.84375 -7.59375 L 3.734375 -4.84375 L -8.09375 -13.953125 L -11.609375 -9.390625 L -14.046875 -11.265625 L -4.90625 -23.140625 Z M -2.46875 -21.265625 "/></g></g></g><g fill="#000000" fill-opacity="1"><g transform="translate(335.344318, 268.882563)"><g><path d="M -14.09375 -11.859375 L -4.359375 -11.734375 L -9.921875 -19.78125 L -8.15625 -23.125 L -0.859375 -11.859375 L 4.703125 -8.921875 L 3.09375 -5.859375 L -2.515625 -8.8125 L -15.875 -8.484375 Z M -14.09375 -11.859375 "/></g></g></g><g fill="#000000" fill-opacity="1"><g transform="translate(347.551524, 243.514825)"><g><path d="M 0.578125 -1.78125 L -16.515625 -7.40625 L -15.421875 -10.734375 L -1.234375 -6.0625 L 1.640625 -14.78125 L 4.546875 -13.828125 Z M 0.578125 -1.78125 "/></g></g></g><g fill="#000000" fill-opacity="1"><g transform="translate(354.860331, 218.362239)"><g><path d="M -0.828125 -14.671875 L 2.203125 -14.203125 L 0.28125 -1.859375 L -17.5 -4.625 L -15.609375 -16.75 L -12.59375 -16.28125 L -13.9375 -7.609375 L -9.640625 -6.9375 L -8.484375 -14.421875 L -5.6875 -13.984375 L -6.84375 -6.5 L -2.203125 -5.78125 Z M -0.828125 -14.671875 "/></g></g></g><g fill="#000000" fill-opacity="1"><g transform="translate(78.308975, 242.995976)"><g><path d="M 114.234375 -122.84375 C 103.726562 -112.78125 102.164062 -95.011719 100.820312 -82.042969 C 99.144531 -64.046875 100.597656 -41.804688 101.269531 -24.589844 C 97.132812 -34.761719 92.105469 -50.074219 88.191406 -60.136719 C 82.378906 -74.667969 76.679688 -89.644531 68.855469 -103.167969 C 62.816406 -113.339844 56 -121.722656 43.257812 -121.722656 C 31.296875 -121.722656 20.566406 -114.457031 15.535156 -103.503906 C 9.390625 -89.867188 10.84375 -72.878906 18.890625 -60.359375 C 19.335938 -59.6875 20.230469 -59.464844 21.238281 -59.464844 C 24.480469 -59.464844 29.398438 -61.8125 28.613281 -62.929688 C 21.796875 -73.660156 19.671875 -87.183594 23.136719 -99.367188 C 25.375 -106.859375 29.621094 -116.804688 38.898438 -116.804688 C 49.292969 -116.804688 55.21875 -107.082031 59.464844 -99.703125 C 66.730469 -87.183594 72.097656 -73.4375 77.460938 -59.910156 C 85.507812 -39.792969 93.332031 -19.5625 102.386719 0 C 102.722656 0.78125 103.726562 1.007812 104.957031 1.007812 C 107.976562 1.007812 112.222656 -0.671875 112.113281 -2.570312 C 110.101562 -27.273438 108.421875 -52.085938 109.875 -77.015625 C 111.105469 -93.558594 112.671875 -109.09375 120.269531 -119.824219 C 121.722656 -122.058594 123.402344 -123.511719 125.414062 -124.628906 C 128.207031 -126.308594 131.335938 -126.195312 134.242188 -127.871094 C 135.921875 -128.878906 133.574219 -129.660156 132.230469 -129.660156 C 125.636719 -129.660156 119.152344 -127.425781 114.234375 -122.84375 Z M 47.167969 -103.394531 C 47.058594 -104.621094 45.828125 -105.070312 44.261719 -105.070312 C 41.246094 -105.070312 37.222656 -103.28125 37.445312 -100.820312 C 38.5625 -90.761719 38.675781 -80.367188 38.5625 -70.195312 C 38.339844 -43.59375 36.105469 -14.417969 26.492188 10.730469 C 25.707031 12.519531 28.726562 12.964844 30.179688 12.964844 C 30.402344 12.964844 30.515625 12.964844 30.625 12.964844 C 32.863281 12.628906 35.433594 11.738281 36.105469 9.5 C 42.808594 -7.378906 45.605469 -25.597656 47.058594 -43.480469 C 48.398438 -59.019531 48.734375 -74.667969 48.0625 -90.089844 C 47.953125 -94.5625 47.726562 -99.035156 47.167969 -103.394531 Z M 47.167969 -103.394531 "/></g></g></g><g fill="#000000" fill-opacity="1"><g transform="translate(192.893196, 242.995976)"><g><path d="M 83.160156 -85.957031 C 85.507812 -108.3125 71.535156 -121.390625 51.863281 -121.390625 C 40.351562 -121.390625 26.714844 -117.03125 19.449219 -107.753906 C 13.300781 -100.039062 11.960938 -87.519531 17.324219 -79.359375 C 22.132812 -71.761719 31.074219 -67.738281 39.011719 -63.9375 C 48.175781 -59.578125 57.675781 -55.441406 65.164062 -48.398438 C 73.660156 -40.351562 79.027344 -27.945312 73.660156 -16.765625 C 69.078125 -7.378906 59.578125 -3.464844 50.1875 -3.464844 C 47.617188 -3.464844 45.15625 -3.6875 42.699219 -4.246094 C 29.285156 -7.042969 20.121094 -16.765625 20.789062 -30.292969 C 20.902344 -33.308594 21.347656 -36.4375 22.132812 -39.457031 C 22.46875 -40.6875 21.125 -41.132812 19.449219 -41.132812 C 16.765625 -41.132812 12.855469 -39.902344 12.40625 -38.003906 C 7.152344 -15.761719 18.21875 -2.011719 39.34375 1.007812 C 42.140625 1.339844 45.046875 1.566406 47.839844 1.566406 C 52.535156 1.566406 57.230469 1.007812 61.589844 -0.445312 C 74.890625 -4.804688 86.960938 -15.871094 85.621094 -30.851562 C 84.613281 -41.917969 76.566406 -51.304688 67.738281 -57.230469 C 59.242188 -62.929688 49.628906 -66.730469 40.574219 -71.425781 C 33.421875 -75.226562 25.820312 -80.253906 24.144531 -88.75 C 21.015625 -104.957031 33.085938 -116.359375 48.398438 -116.359375 C 61.476562 -116.359375 71.761719 -106.523438 73.4375 -94.339844 C 73.773438 -90.984375 73.773438 -87.746094 73.4375 -84.613281 C 73.214844 -83.273438 74.554688 -82.714844 76.34375 -82.714844 C 79.136719 -82.714844 82.9375 -84.167969 83.160156 -85.957031 Z M 83.160156 -85.957031 "/></g></g></g><g clip-path="url(#522b01401b)"><g clip-path="url(#5d294a1ee7)"><path fill="#000000" d="M 283.027344 230.699219 L 296.214844 230.699219 L 296.214844 243.890625 L 283.027344 243.890625 Z M 283.027344 230.699219 " fill-opacity="1" fill-rule="nonzero"/></g></g></svg>